<?xml version="1.0" standalone="no"?>
<!DOCTYPE svg PUBLIC "-//W3C//DTD SVG 20010904//EN"
 "http://www.w3.org/TR/2001/REC-SVG-20010904/DTD/svg10.dtd">
<svg version="1.0" xmlns="http://www.w3.org/2000/svg"
 width="1080.000000pt" height="1080.000000pt" viewBox="0 0 1080.000000 1080.000000"
 preserveAspectRatio="xMidYMid meet">
<metadata>
Created by potrace 1.14, written by Peter Selinger 2001-2017
</metadata>
<g transform="translate(0.000000,1080.000000) scale(0.100000,-0.100000)"
fill="#000000" stroke="none">
<path d="M1850 10140 c-134 -18 -156 -21 -172 -26 -9 -3 -25 -7 -35 -9 -95
-21 -223 -65 -323 -113 -30 -14 -58 -26 -62 -26 -13 -2 -118 -70 -278 -180
-47 -32 -230 -212 -230 -226 0 -6 -4 -9 -8 -6 -4 3 -19 -13 -32 -35 -14 -21
-27 -39 -30 -39 -3 0 -14 -16 -24 -35 -11 -19 -23 -35 -28 -35 -4 0 -8 -6 -8
-14 0 -8 -4 -16 -8 -18 -5 -1 -23 -30 -42 -63 -18 -33 -37 -62 -42 -65 -4 -3
-9 -16 -11 -28 -2 -12 -9 -28 -15 -34 -7 -7 -12 -16 -12 -20 0 -5 -8 -27 -19
-51 -10 -23 -24 -58 -31 -77 -7 -19 -16 -44 -21 -55 -7 -17 -24 -77 -34 -120
-1 -5 -5 -21 -8 -35 -16 -61 -29 -147 -31 -207 0 -24 -4 -43 -9 -43 -10 0 -4
-23 8 -32 6 -5 5 -8 -3 -8 -15 0 -17 -4185 -1 -4290 6 -36 12 -76 13 -90 8
-61 19 -111 27 -116 4 -2 6 -11 3 -18 -6 -17 69 -242 103 -311 50 -98 61 -121
83 -160 29 -53 135 -200 180 -249 45 -51 130 -136 134 -136 2 0 22 -17 44 -38
57 -52 60 -55 159 -119 115 -76 115 -76 208 -122 161 -80 298 -123 485 -151
105 -15 260 -17 1709 -18 l1594 -1 68 -47 c38 -26 69 -51 69 -56 0 -4 4 -8 10
-8 5 0 18 -7 27 -15 10 -8 83 -62 163 -120 145 -105 180 -131 203 -150 6 -6
34 -26 62 -45 27 -19 58 -43 69 -52 11 -10 23 -18 26 -18 4 0 18 -9 31 -21 13
-12 44 -35 69 -52 24 -17 54 -40 66 -50 12 -11 24 -17 26 -16 2 2 15 -7 30
-21 14 -14 35 -32 48 -40 12 -8 28 -21 36 -27 7 -7 15 -13 18 -13 6 0 162
-117 184 -137 7 -7 18 -13 23 -13 6 0 20 -10 33 -23 13 -12 33 -29 46 -37 12
-8 28 -20 34 -25 6 -6 27 -20 46 -32 19 -12 47 -34 62 -48 15 -14 29 -25 32
-25 3 0 45 -29 93 -66 48 -36 97 -72 108 -80 37 -26 210 -153 220 -161 6 -5
35 -26 65 -48 30 -22 61 -45 68 -52 7 -7 17 -13 21 -13 4 0 16 -8 27 -17 18
-17 64 -51 189 -143 33 -24 62 -47 63 -52 2 -4 8 -8 14 -8 6 0 22 -10 37 -22
15 -13 38 -31 52 -40 43 -32 214 -157 224 -166 27 -22 105 -70 140 -86 49 -23
158 -33 188 -18 12 6 39 15 59 21 40 10 52 18 109 73 44 43 86 106 93 140 3
13 8 34 11 48 3 14 5 420 5 902 l1 878 52 0 c220 1 566 9 582 13 11 2 43 8 70
11 28 4 77 14 110 23 33 8 65 16 72 17 7 1 16 5 19 9 4 4 13 7 20 7 7 0 25 5
41 12 15 6 30 12 33 13 54 14 237 102 310 149 81 53 89 58 130 91 78 63 95 75
103 75 4 0 5 5 2 10 -3 6 -2 10 3 10 20 0 188 183 246 268 16 23 33 42 39 42
6 0 8 3 4 6 -3 3 10 31 30 61 19 30 45 77 57 103 13 27 28 56 35 64 7 8 14 21
15 28 2 7 8 27 15 43 7 17 12 30 11 30 -2 0 5 18 15 40 24 55 36 94 42 135 3
19 9 37 14 38 5 2 7 7 5 11 -3 4 0 25 5 47 5 21 11 57 14 79 2 22 7 56 11 75
8 42 13 4381 5 4395 -6 11 -8 23 -15 80 -7 58 -16 108 -22 125 -3 8 -8 26 -11
40 -9 43 -11 55 -13 55 -1 0 -3 7 -5 15 -6 28 -48 145 -62 173 -7 15 -10 27
-6 27 5 0 3 4 -3 8 -6 4 -28 42 -49 85 -21 42 -42 77 -47 77 -4 0 -7 3 -6 8 7
22 -136 213 -234 312 -15 15 -24 30 -21 34 4 3 1 6 -6 6 -7 0 -35 21 -63 48
-72 67 -70 66 -100 81 -16 8 -28 20 -28 28 0 7 -3 12 -7 11 -5 -1 -34 15 -65
35 -31 20 -61 37 -67 37 -5 0 -11 4 -13 9 -5 13 -201 105 -288 135 -112 39
-204 62 -280 72 -25 3 -63 9 -85 14 -48 11 -7033 11 -7115 0z m7075 -672 c11
-4 38 -10 60 -13 49 -8 53 -9 88 -23 16 -7 32 -12 37 -12 19 0 177 -79 229
-114 29 -20 55 -36 58 -36 8 0 198 -193 193 -196 -3 -1 4 -13 16 -26 11 -14
27 -39 35 -56 8 -18 17 -32 21 -32 5 0 8 -9 8 -20 0 -11 5 -20 10 -20 6 0 10
-5 10 -10 0 -6 9 -30 21 -54 11 -25 22 -51 23 -58 2 -7 6 -20 9 -28 17 -43 31
-113 42 -215 7 -58 7 -4144 0 -4155 -3 -5 -1 -11 5 -15 6 -4 7 -12 3 -18 -4
-6 -8 -29 -9 -52 -1 -41 -28 -190 -34 -190 -1 0 -3 -8 -5 -18 -2 -10 -7 -26
-11 -35 -4 -9 -8 -19 -8 -22 -5 -23 -81 -170 -88 -170 -5 0 -6 -5 -3 -10 3 -5
1 -10 -4 -10 -6 0 -11 -5 -11 -11 0 -6 -6 -16 -12 -23 -7 -8 -20 -24 -28 -36
-8 -13 -32 -40 -52 -61 -21 -22 -34 -39 -31 -39 3 0 -12 -13 -33 -29 -21 -15
-48 -38 -58 -50 -11 -11 -25 -21 -32 -21 -7 0 -14 -3 -16 -8 -12 -27 -213
-127 -298 -147 -3 -1 -23 -5 -45 -10 -22 -5 -42 -10 -45 -10 -73 -17 -537 -28
-546 -13 -3 5 -11 5 -17 1 -16 -10 -217 -11 -223 -1 -3 5 -10 5 -16 1 -7 -3
-57 -8 -112 -9 -122 -4 -131 -6 -204 -42 -31 -16 -142 -122 -127 -122 3 0 -3
-13 -15 -30 -12 -16 -18 -30 -14 -30 3 0 1 -7 -6 -15 -7 -8 -9 -15 -5 -15 4 0
3 -6 -3 -13 -7 -8 -7 -18 -2 -27 5 -8 6 -19 2 -25 -4 -5 -8 -311 -8 -680 -1
-369 -2 -682 -3 -697 -1 -33 -10 -35 -37 -10 -10 10 -35 29 -54 42 -19 13 -39
28 -45 33 -15 12 -351 258 -515 377 -41 30 -76 58 -78 62 -2 5 -10 8 -18 8 -8
0 -14 3 -14 8 -1 4 -23 23 -51 42 -28 19 -58 42 -68 50 -11 8 -37 26 -60 40
-22 14 -41 31 -41 38 0 6 -3 11 -7 10 -7 -2 -111 68 -163 109 -50 39 -192 143
-196 143 -3 0 -14 9 -26 20 -12 11 -40 32 -62 47 -23 15 -46 32 -51 37 -6 6
-18 16 -27 21 -9 6 -68 47 -130 93 -62 46 -123 91 -136 100 -13 9 -36 27 -50
39 -15 13 -33 23 -39 23 -7 0 -13 5 -13 10 0 6 -8 14 -17 17 -10 4 -25 14 -33
23 -8 9 -30 25 -47 35 -18 11 -33 23 -33 27 0 4 -6 8 -14 8 -8 0 -16 4 -18 8
-1 5 -26 25 -55 44 -29 20 -49 38 -46 42 4 3 0 6 -7 6 -14 0 -115 73 -141 102
-9 10 -21 18 -27 18 -5 0 -12 6 -15 13 -4 10 -52 13 -217 12 -116 0 -214 3
-217 7 -2 5 -10 5 -16 1 -16 -10 -217 -11 -223 -1 -3 5 -11 5 -17 1 -16 -10
-698 -10 -704 0 -2 4 -10 4 -16 0 -16 -10 -217 -11 -223 -1 -3 5 -11 5 -17 1
-16 -10 -698 -10 -704 0 -2 4 -10 4 -16 0 -16 -10 -217 -11 -223 -1 -3 5 -11
5 -17 1 -16 -10 -377 -10 -383 -1 -3 5 -13 4 -22 0 -22 -10 -223 -9 -239 1 -7
5 -13 4 -13 -1 0 -10 -74 -8 -170 3 -157 17 -329 81 -453 169 -101 71 -257
232 -257 266 0 6 -3 9 -8 6 -4 -2 -16 15 -27 37 -11 23 -26 48 -32 55 -7 7
-13 17 -13 22 0 5 -11 34 -25 64 -14 30 -34 91 -44 135 -11 44 -22 85 -26 91
-3 5 -1 10 5 10 7 0 8 6 0 19 -5 11 -10 30 -9 43 0 13 0 77 -1 144 -1 66 0
125 1 130 1 5 0 14 -1 19 -2 10 -1 208 1 223 1 4 1 12 0 17 -3 13 -3 688 -1
700 2 6 1 15 0 20 -2 10 -1 208 1 223 1 4 1 12 0 17 -3 13 -3 688 -1 700 2 6
1 15 0 20 -2 10 -1 208 1 223 1 4 0 12 -1 17 -2 13 -3 106 0 175 1 30 1 60 0
65 -7 45 -3 235 5 236 6 0 5 3 -1 5 -8 3 -9 16 -4 39 4 19 5 37 2 40 -5 4 -5
275 -1 302 1 4 1 13 -1 18 -7 39 -3 235 5 236 6 0 5 3 -1 5 -8 3 -9 16 -4 39
4 19 5 36 2 39 -6 7 -4 533 3 595 9 83 17 125 26 143 5 10 7 18 5 18 -13 0 88
234 114 266 6 6 7 14 3 17 -3 4 -2 7 4 7 6 0 23 19 38 42 41 61 79 102 165
179 132 116 372 215 565 231 69 6 6972 2 6990 -4z"/>
<path d="M2133 8152 c-72 -3 -73 -3 -74 -30 -1 -15 -3 -40 -4 -57 -1 -16 -6
-82 -9 -145 -4 -63 -9 -135 -11 -160 -1 -25 -6 -88 -10 -140 -3 -52 -8 -126
-10 -165 -2 -38 -7 -108 -10 -155 -3 -47 -7 -121 -10 -165 -3 -44 -7 -105 -10
-135 -2 -30 -7 -102 -10 -160 -3 -58 -8 -130 -10 -160 -2 -30 -7 -98 -10 -150
-6 -105 -12 -197 -20 -310 -3 -41 -7 -109 -10 -150 -2 -41 -7 -120 -11 -175
-3 -55 -7 -122 -9 -150 -6 -110 -17 -272 -20 -311 -2 -22 -6 -92 -10 -155 -4
-63 -8 -136 -10 -164 -2 -27 -6 -102 -10 -165 -4 -63 -8 -119 -9 -125 0 -6
123 -11 350 -13 l351 -2 3 77 c1 43 3 105 5 138 3 59 11 220 20 420 12 253 16
346 20 425 2 47 7 137 10 200 3 63 7 153 10 200 8 143 14 278 20 435 3 83 7
188 10 235 2 47 7 164 11 260 3 96 7 194 8 217 2 46 16 72 17 32 0 -13 2 -31
4 -39 2 -8 6 -31 9 -50 4 -19 9 -42 11 -50 2 -8 7 -28 9 -45 20 -114 91 -434
142 -638 19 -78 37 -149 39 -157 9 -40 25 -101 40 -155 9 -33 18 -68 21 -77 9
-37 13 -55 34 -128 12 -41 24 -84 26 -94 2 -10 8 -33 13 -50 6 -17 22 -76 36
-131 15 -55 33 -122 40 -150 18 -64 85 -307 89 -320 2 -5 6 -23 10 -40 5 -16
17 -61 28 -99 11 -38 21 -76 23 -85 2 -9 15 -59 30 -111 15 -52 29 -103 31
-113 10 -56 -11 -52 312 -52 l298 0 41 135 c23 74 67 216 98 315 31 99 76 243
100 320 23 77 66 214 95 305 28 91 53 170 54 175 1 6 27 89 59 185 98 303 230
765 287 1005 12 50 24 97 28 105 8 21 9 28 11 46 0 8 5 13 10 10 4 -3 9 -103
10 -223 4 -290 8 -498 15 -728 4 -104 9 -262 11 -350 3 -88 8 -209 10 -270 3
-60 7 -184 10 -275 4 -91 8 -203 10 -250 2 -47 7 -164 11 -260 8 -212 11 -283
13 -292 0 -5 167 -8 370 -8 l370 0 -4 48 c-3 26 -7 99 -10 162 -2 63 -7 149
-9 190 -3 41 -8 127 -11 190 -3 63 -8 149 -10 190 -2 41 -7 118 -10 170 -3 52
-7 131 -10 175 -3 44 -7 123 -10 175 -5 109 -14 273 -20 375 -2 39 -7 122 -10
185 -3 63 -8 147 -10 185 -2 39 -7 113 -10 165 -9 176 -16 295 -20 370 -5 81
-14 242 -20 355 -1 39 -6 126 -11 195 -4 69 -7 144 -8 168 0 30 -5 42 -16 43
-19 0 -811 0 -905 0 l-71 -1 -31 -97 c-17 -54 -68 -213 -113 -353 -45 -140
-90 -280 -100 -310 -61 -181 -125 -389 -170 -555 -28 -104 -58 -210 -66 -235
-7 -25 -45 -175 -84 -335 -93 -384 -105 -428 -116 -432 -5 -2 -22 63 -38 145
-16 81 -35 172 -42 202 -7 30 -25 109 -39 175 -22 98 -123 507 -140 565 -8 27
-46 164 -49 180 -2 8 -14 44 -25 80 -12 36 -23 74 -26 85 -4 21 -112 392 -140
484 -9 30 -18 62 -20 70 -2 9 -20 70 -40 136 -19 66 -38 128 -40 138 -13 58
-11 57 -98 58 -399 3 -795 3 -854 1z"/>
<path d="M6133 8149 c-15 -5 -16 -141 -17 -1672 l-1 -1667 380 0 380 0 0 698
0 697 623 3 622 2 0 -700 0 -700 378 0 377 0 0 1670 0 1670 -25 1 c-27 0 -710
0 -722 -1 -5 0 -8 -288 -8 -640 l0 -640 -47 -1 c-27 0 -307 -1 -623 -2 l-575
-2 0 643 c0 636 0 642 -20 643 -138 4 -710 3 -722 -2z"/>
</g>
</svg>
