<?xml version="1.0" encoding="UTF-8"?>
<svg viewBox="0 0 96 76" class="w-6 h-6 fill-current" version="1.1" xmlns="http://www.w3.org/2000/svg" xmlns:xlink="http://www.w3.org/1999/xlink">
            <path d="M95.81,0.68 C96.9145695,0.68 97.8100047,1.5754305 97.8100047,2.68 L97.8100047,64.53 C97.8126697,67.3959717 96.673979,70.145036 94.6455545,72.1697076 C92.6171301,74.1943791 89.8659618,75.327977 87,75.3200418 L14.75,75.3200418 C7.81006614,75.3144855 2.18551445,69.6899339 2.18,62.75 L2.18,23.75 C2.18,22.6454305 3.07543051,21.75 4.18,21.75 C5.28456949,21.75 6.18,22.6454305 6.18,23.75 L6.18,62.75 C6.33776417,67.3664558 10.1258493,71.0272971 14.745,71.0272971 C19.3641507,71.0272971 23.1522358,67.3664558 23.31,62.75 L23.31,2.68 C23.31,1.5754305 24.2054305,0.68 25.31,0.68 L95.81,0.68 Z M82.47,14.11 L38.67,14.11 C37.5654305,14.11 36.67,15.0054305 36.67,16.11 C36.67,17.2145695 37.5654305,18.11 38.67,18.11 L38.67,18.11 L82.47,18.11 C83.5745695,18.11 84.47,17.2145695 84.47,16.11 C84.47,15.0054305 83.5745695,14.11 82.47,14.11 L82.47,14.11 Z M38.67,29 L51.85,29 C52.9545695,29 53.85,28.1045695 53.85,27 C53.85,25.8954305 52.9545695,25 51.85,25 L38.67,25 C37.5654305,25 36.67,25.8954305 36.67,27 C36.67,28.1045695 37.5654305,29 38.67,29 Z M38.67,39.86 L51.85,39.86 C52.9545695,39.86 53.85,38.9645695 53.85,37.86 C53.85,36.7554305 52.9545695,35.86 51.85,35.86 L38.67,35.86 C37.5654305,35.86 36.67,36.7554305 36.67,37.86 C36.67,38.9645695 37.5654305,39.86 38.67,39.86 Z M38.67,50.72 L51.85,50.72 C52.9545695,50.72 53.85,49.8245695 53.85,48.72 C53.85,47.6154305 52.9545695,46.72 51.85,46.72 L38.67,46.72 C37.5654305,46.72 36.67,47.6154305 36.67,48.72 C36.67,49.8245695 37.5654305,50.72 38.67,50.72 Z M82.47,57.58 L38.67,57.58 C37.5654305,57.58 36.67,58.4754305 36.67,59.58 C36.67,60.6845695 37.5654305,61.58 38.67,61.58 L82.47,61.58 C83.5745695,61.58 84.47,60.6845695 84.47,59.58 C84.47,58.4754305 83.5745695,57.58 82.47,57.58 Z M80.47,28.99 L65,28.99 L65,46.7 L80.47,46.7 L80.47,28.99 Z M14.75,22.17 C15.8545695,22.17 16.75,23.0654305 16.75,24.17 L16.75,24.17 L16.75,62.72 C16.75,63.8245695 15.8545695,64.72 14.75,64.72 C13.6454305,64.72 12.75,63.8245695 12.75,62.72 L12.75,62.72 L12.75,24.17 C12.75,23.0654305 13.6454305,22.17 14.75,22.17 Z" id="Shape"></path>
</svg>